HIERARCHY
ROOT hip
{
	OFFSET 0.000000 0.000000 0.000000
	CHANNELS 6 Xposition Yposition Zposition Xrotation Zrotation Yrotation 
	JOINT abdomen
	{
		OFFSET 0.000000 3.422050 0.000000
		CHANNELS 3 Xrotation Zrotation Yrotation 
		JOINT chest
		{
			OFFSET 0.000000 8.486693 -0.684411
			CHANNELS 3 Xrotation Zrotation Yrotation 
			JOINT neck
			{
				OFFSET 0.000000 10.266162 -0.273764
				CHANNELS 3 Xrotation Zrotation Yrotation 
				JOINT head
				{
					OFFSET 0.000000 3.148285 0.000000
					CHANNELS 3 Xrotation Zrotation Yrotation 
					End Site
					{
						OFFSET 0.000000 3.148289 0.000000
					}
				}
			}
			JOINT lCollar
			{
				OFFSET 3.422053 6.707223 -0.821293
				CHANNELS 3 Yrotation Zrotation Xrotation 
				JOINT lShldr
				{
					OFFSET 3.285171 0.000000 0.000000
					CHANNELS 3 Zrotation Yrotation Xrotation 
					JOINT lForeArm
					{
						OFFSET 10.129278 0.000000 0.000000
						CHANNELS 3 Yrotation Zrotation Xrotation 
						JOINT lHand
						{
							OFFSET 8.486692 0.000000 0.000000
							CHANNELS 3 Zrotation Yrotation Xrotation 
							End Site
							{
								OFFSET 4.106464 0.000000 0.000000
							}
						}
					}
				}
			}
			JOINT rCollar
			{
				OFFSET -3.558935 6.707223 -0.821293
				CHANNELS 3 Yrotation Zrotation Xrotation 
				JOINT rShldr
				{
					OFFSET -3.148289 0.000000 0.000000
					CHANNELS 3 Zrotation Yrotation Xrotation 
					JOINT rForeArm
					{
						OFFSET -10.266159 0.000000 0.000000
						CHANNELS 3 Yrotation Zrotation Xrotation 
						JOINT rHand
						{
							OFFSET -8.349810 0.000000 0.000000
							CHANNELS 3 Zrotation Yrotation Xrotation 
							End Site
							{
								OFFSET -4.106464 0.000000 0.000000
							}
						}
					}
				}
			}
		}
	}
	JOINT lThigh
	{
		OFFSET 5.338403 -1.642589 1.368821
		CHANNELS 3 Xrotation Zrotation Yrotation 
		JOINT lShin
		{
			OFFSET -2.053232 -20.121670 0.000000
			CHANNELS 3 Xrotation Zrotation Yrotation 
			JOINT lFoot
			{
				OFFSET 0.000000 -19.300380 -1.231939
				CHANNELS 3 Xrotation Yrotation Zrotation 
				End Site
				{
					OFFSET 0.000000 -2.463878 4.653993
				}
			}
		}
	}
	JOINT rThigh
	{
		OFFSET -5.338403 -1.642589 1.368821
		CHANNELS 3 Xrotation Zrotation Yrotation 
		JOINT rShin
		{
			OFFSET 2.053232 -20.121670 0.000000
			CHANNELS 3 Xrotation Zrotation Yrotation 
			JOINT rFoot
			{
				OFFSET 0.000000 -19.300380 -1.231939
				CHANNELS 3 Xrotation Yrotation Zrotation 
				End Site
				{
					OFFSET 0.000000 -2.463878 4.653993
				}
			}
		}
	}
}
MOTION
Frames: 13
Frame Time: 0.033264
-10.191681 5.564243 -9.476800 153.996292 -81.996613 171.999969 62.655457 24.276482 -12.578410 30.567364 -0.624251 17.550116 -0.038806 -21.000341 0.031280 0.465259 14.691761 -9.607577 0.278464 -8.002678 -0.003308 -19.002407 -34.002338 0.000032 -92.746437 11.746895 -29.104177 -7.000325 0.000000 0.000000 -0.002182 7.999157 -0.194408 32.728119 80.996132 -12.460068 20.968582 16.006330 -0.000570 19.998167 0.000000 0.000000 28.039324 -7.558508 17.916609 50.842892 -7.464536 0.154700 8.928972 0.931726 2.653121 8.374140 9.556735 7.739244 10.471230 2.336663 0.159704 12.001081 17.922434 -2.178630 
-10.191681 5.564243 -9.476800 153.996277 -81.996582 171.999969 62.655457 24.276482 -12.578408 30.567364 -0.624251 17.550116 -0.038547 -21.000341 0.031071 0.471079 14.587107 -9.542081 0.278464 -8.002677 -0.003308 -19.002407 -34.002338 0.000032 -93.050484 11.760865 -29.104881 -7.000325 0.000000 0.000000 -0.002182 7.999156 -0.194408 32.728134 80.996124 -12.460051 20.968773 16.006273 -0.000575 19.998167 0.000000 0.000000 28.039322 -7.558507 17.916609 50.843163 -7.464547 0.154704 8.928678 0.931743 2.653133 8.374257 9.556760 7.739621 10.470993 2.336663 0.159699 12.000937 17.922432 -2.178631 
-10.191681 5.564243 -9.476800 153.996277 -81.996582 171.999969 62.655457 24.276482 -12.578408 30.567364 -0.624251 17.550116 -0.038289 -21.000341 0.030863 0.476773 14.482432 -9.476616 0.278464 -8.002677 -0.003308 -19.002407 -34.002338 0.000032 -93.354599 11.774843 -29.105516 -7.000325 0.000000 0.000000 -0.002182 7.999156 -0.194408 32.728134 80.996124 -12.460051 20.968964 16.006218 -0.000579 19.998167 0.000000 0.000000 28.039322 -7.558507 17.916609 50.843433 -7.464558 0.154707 8.928385 0.931760 2.653146 8.374375 9.556787 7.739999 10.470758 2.336663 0.159695 12.000794 17.922434 -2.178632 
-10.191681 5.564243 -9.476800 153.996277 -81.996582 171.999969 62.655457 24.276482 -12.578408 30.567364 -0.624251 17.550116 -0.038030 -21.000341 0.030654 0.482342 14.377740 -9.411185 0.278464 -8.002677 -0.003308 -19.002407 -34.002338 0.000032 -93.658745 11.788822 -29.106070 -7.000325 0.000000 0.000000 -0.002182 7.999156 -0.194408 32.728134 80.996124 -12.460051 20.969154 16.006159 -0.000583 19.998167 0.000000 0.000000 28.039322 -7.558507 17.916609 50.843708 -7.464568 0.154710 8.928090 0.931778 2.653157 8.374494 9.556812 7.740378 10.470523 2.336664 0.159690 12.000652 17.922432 -2.178633 
-10.191681 5.564243 -9.476800 153.996277 -81.996582 171.999969 62.655457 24.276482 -12.578408 30.567364 -0.624251 17.550116 -0.037771 -21.000341 0.030446 0.487785 14.273031 -9.345789 0.278464 -8.002677 -0.003308 -19.002407 -34.002338 0.000032 -93.962944 11.802807 -29.106554 -7.000325 0.000000 0.000000 -0.002182 7.999156 -0.194408 32.728134 80.996124 -12.460051 20.969345 16.006105 -0.000588 19.998167 0.000000 0.000000 28.039322 -7.558507 17.916609 50.843979 -7.464578 0.154714 8.927797 0.931795 2.653170 8.374610 9.556838 7.740755 10.470288 2.336664 0.159685 12.000510 17.922434 -2.178634 
-10.191681 5.564243 -9.476800 153.996277 -81.996582 171.999969 62.655457 24.276482 -12.578408 30.567364 -0.624251 17.550116 -0.037513 -21.000341 0.030237 0.493103 14.168307 -9.280427 0.278464 -8.002677 -0.003308 -19.002407 -34.002338 0.000032 -94.267181 11.816796 -29.106956 -7.000325 0.000000 0.000000 -0.002182 7.999156 -0.194408 32.728134 80.996124 -12.460051 20.969538 16.006048 -0.000593 19.998167 0.000000 0.000000 28.039322 -7.558507 17.916609 50.844254 -7.464589 0.154717 8.927503 0.931813 2.653182 8.374728 9.556866 7.741133 10.470053 2.336664 0.159680 12.000366 17.922432 -2.178635 
-10.191681 5.564243 -9.476800 153.996277 -81.996582 171.999969 62.655457 24.276482 -12.578408 30.567364 -0.624251 17.550116 -0.037254 -21.000341 0.030029 0.498296 14.063565 -9.215097 0.278464 -8.002677 -0.003308 -19.002407 -34.002338 0.000032 -94.571434 11.830782 -29.107283 -7.000325 0.000000 0.000000 -0.002182 7.999156 -0.194408 32.728134 80.996124 -12.460051 20.969728 16.005991 -0.000597 19.998167 0.000000 0.000000 28.039322 -7.558507 17.916609 50.844528 -7.464600 0.154720 8.927209 0.931830 2.653194 8.374846 9.556892 7.741511 10.469819 2.336664 0.159676 12.000224 17.922434 -2.178636 
-10.191681 5.564243 -9.476800 153.996277 -81.996582 171.999969 62.655457 24.276482 -12.578408 30.567364 -0.624251 17.550116 -0.036995 -21.000341 0.029820 0.503363 13.958804 -9.149800 0.278464 -8.002677 -0.003308 -19.002407 -34.002338 0.000032 -94.875740 11.844775 -29.107538 -7.000325 0.000000 0.000000 -0.002182 7.999156 -0.194408 32.728134 80.996124 -12.460051 20.969919 16.005938 -0.000602 19.998167 0.000000 0.000000 28.039322 -7.558507 17.916609 50.844799 -7.464610 0.154723 8.926915 0.931848 2.653206 8.374965 9.556918 7.741890 10.469583 2.336664 0.159671 12.000082 17.922434 -2.178638 
-10.191681 5.564243 -9.476800 153.996277 -81.996582 171.999969 62.655457 24.276482 -12.578408 30.567364 -0.624251 17.550116 -0.036737 -21.000340 0.029612 0.508307 13.854030 -9.084538 0.278464 -8.002677 -0.003308 -19.002407 -34.002338 0.000032 -95.180054 11.858768 -29.107712 -7.000325 0.000000 0.000000 -0.002182 7.999156 -0.194408 32.728134 80.996124 -12.460051 20.970112 16.005882 -0.000607 19.998167 0.000000 0.000000 28.039322 -7.558507 17.916609 50.845074 -7.464620 0.154727 8.926621 0.931865 2.653219 8.375082 9.556944 7.742267 10.469348 2.336665 0.159666 11.999939 17.922434 -2.178638 
-10.191681 5.564243 -9.476800 153.996277 -81.996582 171.999969 62.655457 24.276482 -12.578408 30.567364 -0.624251 17.550116 -0.036478 -21.000341 0.029403 0.513125 13.749242 -9.019307 0.278464 -8.002677 -0.003308 -19.002407 -34.002338 0.000032 -95.484406 11.872764 -29.107807 -7.000325 0.000000 0.000000 -0.002182 7.999156 -0.194408 32.728134 80.996124 -12.460051 20.970303 16.005827 -0.000611 19.998167 0.000000 0.000000 28.039322 -7.558507 17.916609 50.845341 -7.464630 0.154731 8.926328 0.931882 2.653231 8.375200 9.556970 7.742645 10.469112 2.336665 0.159661 11.999797 17.922434 -2.178640 
-10.191681 5.564243 -9.476800 153.996277 -81.996582 171.999969 62.655457 24.276482 -12.578408 30.567364 -0.624251 17.550116 -0.036219 -21.000341 0.029195 0.517819 13.644437 -8.954108 0.278464 -8.002677 -0.003308 -19.002407 -34.002338 0.000032 -95.788773 11.886760 -29.107838 -7.000325 0.000000 0.000000 -0.002182 7.999156 -0.194408 32.728134 80.996124 -12.460051 20.970495 16.005772 -0.000616 19.998167 0.000000 0.000000 28.039320 -7.558507 17.916607 50.845615 -7.464641 0.154734 8.926033 0.931900 2.653243 8.375319 9.556996 7.743023 10.468879 2.336665 0.159656 11.999654 17.922436 -2.178641 
-10.191681 5.564243 -9.476800 153.996277 -81.996582 171.999969 62.655457 24.276482 -12.578408 30.567364 -0.624251 17.550116 -0.035960 -21.000341 0.028986 0.522389 13.539619 -8.888943 0.278464 -8.002677 -0.003308 -19.002407 -34.002338 0.000032 -96.093147 11.900752 -29.107780 -7.000325 0.000000 0.000000 -0.002182 7.999156 -0.194408 32.728134 80.996124 -12.460051 20.970686 16.005714 -0.000620 19.998167 0.000000 0.000000 28.039320 -7.558507 17.916607 50.845890 -7.464652 0.154738 8.925739 0.931917 2.653255 8.375437 9.557022 7.743401 10.468643 2.336666 0.159652 11.999511 17.922436 -2.178642 
-10.191681 5.564243 -9.476800 153.996277 -81.996582 171.999969 62.655457 24.276482 -12.578408 30.567364 -0.624251 17.550116 -0.035702 -21.000341 0.028777 0.526834 13.434787 -8.823807 0.278464 -8.002677 -0.003308 -19.002407 -34.002338 0.000032 -96.397537 11.914748 -29.107660 -7.000325 0.000000 0.000000 -0.002182 7.999156 -0.194408 32.728134 80.996124 -12.460051 20.970877 16.005657 -0.000625 19.998167 0.000000 0.000000 28.039320 -7.558507 17.916607 50.846157 -7.464662 0.154741 8.925447 0.931935 2.653268 8.375555 9.557049 7.743780 10.468409 2.336666 0.159647 11.999368 17.922436 -2.178643 
